{
	"asset":{
		"generator":"Khronos glTF Blender I/O v4.2.83",
		"version":"2.0"
	},
	"scene":0,
	"scenes":[
		{
			"name":"Scene",
			"nodes":[
				99
			]
		}
	],
	"nodes":[
		{
			"name":"Tongue_02",
			"rotation":[
				7.450581485102248e-09,
				-6.664005525180983e-08,
				2.172276873726737e-16,
				1
			],
			"scale":[
				1,
				0.9999999403953552,
				0.9999999403953552
			],
			"translation":[
				-5.422755750298866e-14,
				0.5976002812385559,
				-1.1920928955078125e-07
			]
		},
		{
			"children":[
				0
			],
			"name":"Tongue_01",
			"rotation":[
				-2.980232594040899e-08,
				5.173888695253481e-08,
				-1.0151042951429324e-15,
				1
			],
			"scale":[
				1,
				0.9999999403953552,
				0.9999999403953552
			],
			"translation":[
				-1.34108768534702e-09,
				0.16000038385391235,
				0.04499983787536621
			]
		},
		{
			"children":[
				1
			],
			"name":"Jaw",
			"rotation":[
				-0.028048554435372353,
				-3.723824804069409e-08,
				-1.8808030688433064e-09,
				0.9996066093444824
			],
			"scale":[
				1,
				1,
				0.9999999403953552
			],
			"translation":[
				3.316171870437756e-08,
				0.22623634338378906,
				-0.3179210424423218
			]
		},
		{
			"name":"Eye_L",
			"rotation":[
				0.10235479474067688,
				-0.02851458266377449,
				-0.5538885593414307,
				0.8257831931114197
			],
			"scale":[
				1,
				1,
				0.9999999403953552
			],
			"translation":[
				0.4407798945903778,
				0.5800495743751526,
				-0.0743909627199173
			]
		},
		{
			"name":"Eyelid_L",
			"rotation":[
				0.2845873534679413,
				-0.1517641842365265,
				-0.5334542989730835,
				0.7819234132766724
			],
			"scale":[
				0.9999999403953552,
				1,
				1
			],
			"translation":[
				0.4407798945903778,
				0.5786135792732239,
				-0.054442450404167175
			]
		},
		{
			"name":"Eye_R",
			"rotation":[
				0.10235472768545151,
				0.028514469042420387,
				0.5538886189460754,
				0.8257831931114197
			],
			"scale":[
				0.9999998807907104,
				0.9999998807907104,
				0.9999999403953552
			],
			"translation":[
				-0.4407798945903778,
				0.5800495147705078,
				-0.07439105212688446
			]
		},
		{
			"name":"Eyelid_R",
			"rotation":[
				0.2845872938632965,
				0.1517641395330429,
				0.5334542989730835,
				0.7819234728813171
			],
			"scale":[
				0.9999998211860657,
				0.9999999403953552,
				0.9999999403953552
			],
			"translation":[
				-0.4407798945903778,
				0.5786135196685791,
				-0.05444253981113434
			]
		},
		{
			"name":"Nostril_L",
			"rotation":[
				0.5559586882591248,
				8.219721792102064e-09,
				5.497797328501974e-09,
				0.8312099575996399
			],
			"scale":[
				1,
				0.9999999403953552,
				0.9999999403953552
			],
			"translation":[
				0.21770314872264862,
				1.696601390838623,
				0.11852812021970749
			]
		},
		{
			"name":"LipUpper_L",
			"rotation":[
				0.7320596575737,
				2.5518260837742446e-09,
				2.7421862558441035e-09,
				0.6812405586242676
			],
			"scale":[
				1,
				0.9999999403953552,
				0.9999999403953552
			],
			"translation":[
				0.3894522786140442,
				1.3211051225662231,
				-0.11508908122777939
			]
		},
		{
			"name":"Brow_L",
			"rotation":[
				0.7320596575737,
				-1.792573414149956e-07,
				1.7193029577811103e-07,
				0.6812405586242676
			],
			"scale":[
				1,
				0.9999998807907104,
				0.9999999403953552
			],
			"translation":[
				0.6574296951293945,
				0.3923606276512146,
				0.13676400482654572
			]
		},
		{
			"name":"Nostril_R",
			"rotation":[
				0.5559585690498352,
				8.219712910317867e-09,
				5.497791999431456e-09,
				0.8312100172042847
			],
			"scale":[
				1,
				0.9999999403953552,
				1
			],
			"translation":[
				-0.21834707260131836,
				1.6966538429260254,
				0.11903799325227737
			]
		},
		{
			"name":"LipUpper_R",
			"rotation":[
				0.7320596575737,
				2.551822309015961e-09,
				2.742178928372141e-09,
				0.6812405586242676
			],
			"scale":[
				1,
				0.9999998807907104,
				0.9999999403953552
			],
			"translation":[
				-0.38815632462501526,
				1.3211004734039307,
				-0.1151321604847908
			]
		},
		{
			"name":"Brow_R",
			"rotation":[
				0.7320596575737,
				-1.792573414149956e-07,
				1.7193029577811103e-07,
				0.6812405586242676
			],
			"scale":[
				1,
				0.9999998807907104,
				0.9999999403953552
			],
			"translation":[
				-0.658687174320221,
				0.39235827326774597,
				0.13672344386577606
			]
		},
		{
			"children":[
				2,
				3,
				4,
				5,
				6,
				7,
				8,
				9,
				10,
				11,
				12
			],
			"name":"Head",
			"rotation":[
				-0.22837817668914795,
				2.1761040969181522e-08,
				-1.871705457290318e-08,
				0.9735724925994873
			],
			"scale":[
				1,
				1,
				1.0000001192092896
			],
			"translation":[
				3.118852391788534e-15,
				0.9000321626663208,
				0
			]
		},
		{
			"children":[
				13
			],
			"name":"Neck_04",
			"rotation":[
				-0.2065468430519104,
				-1.021221567088003e-15,
				-1.231114854505222e-08,
				0.9784367084503174
			],
			"scale":[
				1,
				0.9999999403953552,
				1.0000001192092896
			],
			"translation":[
				4.540051704536845e-15,
				0.8776190280914307,
				-1.7881393432617188e-07
			]
		},
		{
			"children":[
				14
			],
			"name":"Neck_03",
			"rotation":[
				-0.05133756250143051,
				-7.75491102444903e-08,
				-7.046407013433509e-09,
				0.998681366443634
			],
			"translation":[
				-3.5423341370648467e-16,
				0.7993876934051514,
				2.2351741790771484e-07
			]
		},
		{
			"children":[
				15
			],
			"name":"Neck_02",
			"rotation":[
				0.14621861279010773,
				2.291121781183847e-08,
				2.8037057120400277e-08,
				0.9892523288726807
			],
			"scale":[
				1,
				0.9999999403953552,
				1
			],
			"translation":[
				-2.8074105743575682e-14,
				0.7950165271759033,
				-2.384185791015625e-07
			]
		},
		{
			"children":[
				16
			],
			"name":"Neck_01",
			"rotation":[
				0.20812809467315674,
				5.2400963568288716e-08,
				2.3937477777735694e-08,
				0.9781015515327454
			],
			"scale":[
				1,
				1.0000001192092896,
				1.0000001192092896
			],
			"translation":[
				1.1369868940661401e-14,
				0.859320342540741,
				-8.940696716308594e-08
			]
		},
		{
			"name":"FrontToe01_L",
			"rotation":[
				0.07977378368377686,
				0.08344190567731857,
				-0.34851858019828796,
				0.9301657676696777
			],
			"scale":[
				0.9999999403953552,
				0.9999999403953552,
				0.9999999403953552
			],
			"translation":[
				0.058883555233478546,
				0.668153703212738,
				0.03579077869653702
			]
		},
		{
			"name":"FrontToe02_L",
			"rotation":[
				0.09761199355125427,
				0.026838505640625954,
				-0.11887726932764053,
				0.9877346754074097
			],
			"scale":[
				1.0000001192092896,
				1,
				1
			],
			"translation":[
				0.02128923498094082,
				0.6871246695518494,
				0.042089104652404785
			]
		},
		{
			"name":"FrontToe03_L",
			"rotation":[
				0.09559968113899231,
				-0.02708086371421814,
				0.11882231384515762,
				0.987931489944458
			],
			"scale":[
				1,
				1.0000001192092896,
				1
			],
			"translation":[
				-0.021288985386490822,
				0.6871246695518494,
				0.04208910092711449
			]
		},
		{
			"name":"FrontToe04_L",
			"rotation":[
				0.04140758141875267,
				-0.11881164461374283,
				0.421963095664978,
				0.8978398442268372
			],
			"translation":[
				-0.06934487074613571,
				0.65750652551651,
				0.03225589171051979
			]
		},
		{
			"children":[
				18,
				19,
				20,
				21
			],
			"name":"FrontFoot_L",
			"rotation":[
				0.3485134243965149,
				-0.5315703749656677,
				0.47556188702583313,
				0.608121931552887
			],
			"scale":[
				0.9999999403953552,
				0.9999999403953552,
				0.9999999403953552
			],
			"translation":[
				1.3449104585561145e-07,
				0.4655546247959137,
				6.332993507385254e-08
			]
		},
		{
			"children":[
				22
			],
			"name":"FrontAnkle_L",
			"rotation":[
				0.06974601000547409,
				-0.017282171174883842,
				0.002428842708468437,
				0.9974121451377869
			],
			"scale":[
				0.9999999403953552,
				0.9999999403953552,
				1
			],
			"translation":[
				-9.495396824377167e-08,
				0.9311092495918274,
				7.82310962677002e-08
			]
		},
		{
			"children":[
				23
			],
			"name":"FrontLegLow_L",
			"rotation":[
				-0.10420627892017365,
				0.07726665586233139,
				-0.0136242201551795,
				0.9914562106132507
			],
			"scale":[
				1,
				0.9999999403953552,
				1
			],
			"translation":[
				2.9802322387695312e-08,
				0.862138032913208,
				1.043081283569336e-07
			]
		},
		{
			"children":[
				24
			],
			"name":"FrontLeg_L",
			"rotation":[
				-0.24177446961402893,
				0.030223866924643517,
				-0.01744980923831463,
				0.9697046875953674
			],
			"scale":[
				0.9999998807907104,
				1,
				1
			],
			"translation":[
				5.650682055602374e-08,
				0.7069535255432129,
				3.725290298461914e-07
			]
		},
		{
			"children":[
				25
			],
			"name":"Shoulder_L",
			"rotation":[
				-0.36651748418807983,
				0.1923854798078537,
				-0.6133219003677368,
				0.6726730465888977
			],
			"scale":[
				0.9999999403953552,
				0.9999999403953552,
				1
			],
			"translation":[
				1.345455288887024,
				-0.2156968116760254,
				0.16519033908843994
			]
		},
		{
			"name":"FrontToe01_R",
			"rotation":[
				0.07978006452322006,
				0.08344406634569168,
				-0.3485175669193268,
				0.9301654696464539
			],
			"translation":[
				0.05888339504599571,
				0.6681557893753052,
				0.035791512578725815
			]
		},
		{
			"name":"FrontToe02_R",
			"rotation":[
				0.09761855006217957,
				0.026839246973395348,
				-0.11887693405151367,
				0.9877340793609619
			],
			"scale":[
				1,
				0.9999999403953552,
				0.9999999403953552
			],
			"translation":[
				0.021289072930812836,
				0.687126874923706,
				0.04209016636013985
			]
		},
		{
			"name":"FrontToe03_R",
			"rotation":[
				0.09560629725456238,
				-0.027081744745373726,
				0.1188223585486412,
				0.9879308342933655
			],
			"scale":[
				0.9999999403953552,
				1,
				1
			],
			"translation":[
				-0.021289147436618805,
				0.687126874923706,
				0.04209015518426895
			]
		},
		{
			"name":"FrontToe04_R",
			"rotation":[
				0.04141362011432648,
				-0.1188146099448204,
				0.4219627380371094,
				0.897839367389679
			],
			"translation":[
				-0.06934502720832825,
				0.6575087308883667,
				0.03225648030638695
			]
		},
		{
			"children":[
				27,
				28,
				29,
				30
			],
			"name":"FrontFoot_R",
			"rotation":[
				0.3485095202922821,
				0.5315737128257751,
				-0.47555822134017944,
				0.6081240773200989
			],
			"scale":[
				1,
				0.9999998211860657,
				0.9999999403953552
			],
			"translation":[
				-1.4462773378909333e-07,
				0.4655959904193878,
				-2.849847078323364e-07
			]
		},
		{
			"children":[
				31
			],
			"name":"FrontAnkle_R",
			"rotation":[
				0.06974587589502335,
				0.01728248782455921,
				-0.002428915351629257,
				0.9974120855331421
			],
			"scale":[
				1,
				1,
				1.0000001192092896
			],
			"translation":[
				5.0158096343011493e-08,
				0.9311919808387756,
				1.1920928955078125e-07
			]
		},
		{
			"children":[
				32
			],
			"name":"FrontLegLow_R",
			"rotation":[
				-0.10420624911785126,
				-0.07726692408323288,
				0.013624312356114388,
				0.9914562106132507
			],
			"translation":[
				-8.018194819214841e-08,
				0.8622146844863892,
				-2.384185791015625e-07
			]
		},
		{
			"children":[
				33
			],
			"name":"FrontLeg_R",
			"rotation":[
				-0.24177458882331848,
				-0.030223850160837173,
				0.017449747771024704,
				0.9697046279907227
			],
			"scale":[
				0.9999999403953552,
				1.0000001192092896,
				1
			],
			"translation":[
				1.4128060854545765e-07,
				0.7070157527923584,
				-8.940696716308594e-08
			]
		},
		{
			"children":[
				34
			],
			"name":"Shoulder_R",
			"rotation":[
				-0.36651748418807983,
				-0.1923854649066925,
				0.6133219003677368,
				0.6726730465888977
			],
			"scale":[
				1,
				1.0000001192092896,
				1
			],
			"translation":[
				-1.3451651334762573,
				-0.21563994884490967,
				0.16543430089950562
			]
		},
		{
			"name":"WingArmTwist_L",
			"rotation":[
				1.0849909415355796e-07,
				-1.2107194891086692e-07,
				-1.862645371275562e-09,
				1
			],
			"scale":[
				0.9999999403953552,
				0.9999998807907104,
				0.9999999403953552
			],
			"translation":[
				3.129243850708008e-07,
				0.923999547958374,
				-1.7881393432617188e-07
			]
		},
		{
			"name":"WingFinger01b_L",
			"rotation":[
				1.6763806343078613e-08,
				-5.2154067731180476e-08,
				-1.6577541828155518e-07,
				1
			],
			"scale":[
				1,
				1,
				0.9999999403953552
			],
			"translation":[
				1.1920928955078125e-07,
				2.8340001106262207,
				9.685754776000977e-08
			]
		},
		{
			"children":[
				37
			],
			"name":"WingFinger01_L",
			"rotation":[
				-0.005194665864109993,
				0.000658604025375098,
				0.12576374411582947,
				0.9920464158058167
			],
			"scale":[
				0.9999998211860657,
				1,
				1
			],
			"translation":[
				2.682209014892578e-07,
				0.4000001847743988,
				-4.954636096954346e-07
			]
		},
		{
			"name":"WingFinger02b_L",
			"rotation":[
				1.6391277313232422e-07,
				1.210719347000122e-07,
				-3.91155481338501e-08,
				1
			],
			"translation":[
				1.1920928955078125e-07,
				2.6519994735717773,
				-3.5762786865234375e-07
			]
		},
		{
			"children":[
				39
			],
			"name":"WingFinger02_L",
			"rotation":[
				-0.006280963309109211,
				-0.0005736058810725808,
				-0.1388767957687378,
				0.990289568901062
			],
			"scale":[
				1.0000001192092896,
				1,
				1.0000001192092896
			],
			"translation":[
				0.11867302656173706,
				0.41407081484794617,
				-0.0005562640726566315
			]
		},
		{
			"name":"WingFinger03b_L",
			"rotation":[
				3.864989039925604e-08,
				1.5832483768463135e-08,
				1.5366822481155396e-08,
				1
			],
			"scale":[
				1,
				0.9999998807907104,
				0.9999999403953552
			],
			"translation":[
				3.2782554626464844e-07,
				2.2619991302490234,
				6.705522537231445e-08
			]
		},
		{
			"children":[
				41
			],
			"name":"WingFinger03_L",
			"rotation":[
				0.011197390034794807,
				-0.008867383003234863,
				-0.3915592432022095,
				0.9200420379638672
			],
			"scale":[
				1,
				1,
				0.9999999403953552
			],
			"translation":[
				0.23734575510025024,
				0.42814093828201294,
				-0.0011122748255729675
			]
		},
		{
			"name":"WingFinger04b_L",
			"rotation":[
				8.754431490842762e-08,
				-3.306194784613581e-08,
				2.607703031287656e-08,
				1
			],
			"scale":[
				1.0000001192092896,
				1,
				1.0000001192092896
			],
			"translation":[
				1.7881393432617188e-07,
				1.7420001029968262,
				4.470348358154297e-08
			]
		},
		{
			"children":[
				43
			],
			"name":"WingFinger04_L",
			"rotation":[
				-0.004214318934828043,
				-0.00310766720212996,
				-0.5935027003288269,
				0.8048149943351746
			],
			"scale":[
				1.0000001192092896,
				0.9999998807907104,
				1
			],
			"translation":[
				0.3560185432434082,
				0.4422118067741394,
				-0.001667570322751999
			]
		},
		{
			"children":[
				38,
				40,
				42,
				44
			],
			"name":"WingWrist_L",
			"rotation":[
				-0.02749168686568737,
				-0.002971639158204198,
				-0.0780576542019844,
				0.9965652823448181
			],
			"scale":[
				0.9999999403953552,
				0.9999999403953552,
				1
			],
			"translation":[
				2.9802322387695312e-08,
				2.799999237060547,
				-5.811452865600586e-07
			]
		},
		{
			"children":[
				45
			],
			"name":"WingForearm_L",
			"rotation":[
				-0.05374959111213684,
				-0.015749899670481682,
				-0.13074961304664612,
				0.9898320436477661
			],
			"scale":[
				0.9999998807907104,
				0.9999999403953552,
				0.9999997615814209
			],
			"translation":[
				4.172325134277344e-07,
				2.1999993324279785,
				3.6135315895080566e-07
			]
		},
		{
			"children":[
				36,
				46
			],
			"name":"WingArm_L",
			"rotation":[
				6.298068910837173e-08,
				1.774169788859581e-07,
				1.4528632164001465e-07,
				1
			],
			"scale":[
				0.9999999403953552,
				1,
				0.9999999403953552
			],
			"translation":[
				-2.0116567611694336e-07,
				0.5500000715255737,
				-2.7567148208618164e-07
			]
		},
		{
			"name":"WingMembrane_L",
			"rotation":[
				-0.1844390630722046,
				0.04469718411564827,
				-0.6427150964736938,
				0.7422276139259338
			],
			"scale":[
				0.9999999403953552,
				0.9999999403953552,
				0.9999999403953552
			],
			"translation":[
				-2.0116567611694336e-07,
				0.5500000715255737,
				-2.7567148208618164e-07
			]
		},
		{
			"children":[
				47,
				48
			],
			"name":"WingRoot_L",
			"rotation":[
				0.205397829413414,
				-0.2600603699684143,
				-0.7235441207885742,
				0.6055280566215515
			],
			"scale":[
				1.0000001192092896,
				0.9999999403953552,
				1.0000001192092896
			],
			"translation":[
				0.1471952497959137,
				0.5798094272613525,
				0.4630573093891144
			]
		},
		{
			"name":"WingArmTwist_R",
			"rotation":[
				1.1140947719923133e-07,
				1.1734665861240501e-07,
				-2.0489100194254206e-08,
				1
			],
			"scale":[
				0.9999999403953552,
				0.9999999403953552,
				0.9999999403953552
			],
			"translation":[
				-1.1920928955078125e-07,
				0.9239996075630188,
				-4.544854164123535e-07
			]
		},
		{
			"name":"WingFinger01b_R",
			"rotation":[
				2.0489096641540527e-08,
				3.166496753692627e-08,
				1.1734664440155029e-07,
				1
			],
			"scale":[
				1,
				1,
				1.0000001192092896
			],
			"translation":[
				-3.5762786865234375e-07,
				2.8340003490448,
				5.364418029785156e-07
			]
		},
		{
			"children":[
				51
			],
			"name":"WingFinger01_R",
			"rotation":[
				-0.005194705445319414,
				-0.0006585841183550656,
				-0.1257636994123459,
				0.9920464158058167
			],
			"translation":[
				8.940696716308594e-08,
				0.40000003576278687,
				-6.817281246185303e-07
			]
		},
		{
			"name":"WingFinger02b_R",
			"rotation":[
				1.7415732145309448e-07,
				-1.0058283805847168e-07,
				1.30385160446167e-08,
				1
			],
			"translation":[
				2.384185791015625e-07,
				2.6520004272460938,
				2.9802322387695312e-08
			]
		},
		{
			"children":[
				53
			],
			"name":"WingFinger02_R",
			"rotation":[
				-0.006280957721173763,
				0.0005735786980949342,
				0.13887685537338257,
				0.990289568901062
			],
			"scale":[
				1,
				0.9999999403953552,
				1
			],
			"translation":[
				-0.11867272853851318,
				0.41407090425491333,
				-0.0005564391613006592
			]
		},
		{
			"name":"WingFinger03b_R",
			"rotation":[
				3.841705620288849e-08,
				6.868503987789154e-09,
				-5.1688406443872736e-08,
				1
			],
			"scale":[
				1,
				0.9999999403953552,
				1
			],
			"translation":[
				8.940696716308594e-08,
				2.2619998455047607,
				3.650784492492676e-07
			]
		},
		{
			"children":[
				55
			],
			"name":"WingFinger03_R",
			"rotation":[
				0.011197440326213837,
				0.008867369964718819,
				0.39155930280685425,
				0.9200419783592224
			],
			"scale":[
				0.9999999403953552,
				1,
				1
			],
			"translation":[
				-0.23734551668167114,
				0.4281408190727234,
				-0.0011119619011878967
			]
		},
		{
			"name":"WingFinger04b_R",
			"rotation":[
				6.146728992462158e-08,
				1.816079020500183e-08,
				-2.421438871635928e-08,
				1
			],
			"scale":[
				0.9999999403953552,
				1,
				1
			],
			"translation":[
				0,
				1.7420001029968262,
				8.940696716308594e-08
			]
		},
		{
			"children":[
				57
			],
			"name":"WingFinger04_R",
			"rotation":[
				-0.004214232321828604,
				0.0031077126041054726,
				0.5935027003288269,
				0.8048149943351746
			],
			"scale":[
				1,
				0.9999998807907104,
				1
			],
			"translation":[
				-0.3560180068016052,
				0.44221189618110657,
				-0.0016677267849445343
			]
		},
		{
			"children":[
				52,
				54,
				56,
				58
			],
			"name":"WingWrist_R",
			"rotation":[
				-0.02749168686568737,
				0.00297161634080112,
				0.07805762439966202,
				0.9965652823448181
			],
			"scale":[
				0.9999999403953552,
				0.9999999403953552,
				1
			],
			"translation":[
				3.2782554626464844e-07,
				2.799999713897705,
				-9.033828973770142e-08
			]
		},
		{
			"children":[
				59
			],
			"name":"WingForearm_R",
			"rotation":[
				-0.05374956876039505,
				0.015749894082546234,
				0.13074961304664612,
				0.9898320436477661
			],
			"scale":[
				0.9999998807907104,
				1,
				0.9999997615814209
			],
			"translation":[
				-2.9802322387695312e-08,
				2.1999998092651367,
				-7.264316082000732e-08
			]
		},
		{
			"children":[
				50,
				60
			],
			"name":"WingArm_R",
			"rotation":[
				1.2177042663097382e-07,
				-1.5739351511001587e-07,
				-8.754432201385498e-08,
				1
			],
			"translation":[
				-5.960464477539063e-08,
				0.550000011920929,
				-2.123415470123291e-07
			]
		},
		{
			"name":"WingMembrane_R",
			"rotation":[
				-0.18443895876407623,
				-0.04469718784093857,
				0.6427150368690491,
				0.7422276139259338
			],
			"scale":[
				1.0000001192092896,
				1,
				1
			],
			"translation":[
				-5.960464477539063e-08,
				0.550000011920929,
				-2.123415470123291e-07
			]
		},
		{
			"children":[
				61,
				62
			],
			"name":"WingRoot_R",
			"rotation":[
				0.20539778470993042,
				0.26006028056144714,
				0.7235441207885742,
				0.6055281162261963
			],
			"scale":[
				0.9999999403953552,
				1,
				1
			],
			"translation":[
				-0.14719530940055847,
				0.5798094272613525,
				0.4630573093891144
			]
		},
		{
			"children":[
				17,
				26,
				35,
				49,
				63
			],
			"name":"Chest",
			"rotation":[
				0.097853884100914,
				-1.7132459007029865e-08,
				7.696611348251281e-09,
				0.9952008128166199
			],
			"translation":[
				-2.563527003656774e-15,
				0.959530234336853,
				-1.0128132998943329e-07
			]
		},
		{
			"children":[
				64
			],
			"name":"Spine_03",
			"rotation":[
				0.0208143163472414,
				-1.2390574788412323e-08,
				2.2534094590298537e-09,
				0.9997833967208862
			],
			"scale":[
				1,
				0.9999998807907104,
				0.9999998807907104
			],
			"translation":[
				-3.3733039690557465e-14,
				1.0399501323699951,
				1.30385160446167e-07
			]
		},
		{
			"children":[
				65
			],
			"name":"Spine_02",
			"rotation":[
				-0.03416848182678223,
				4.44694130408152e-08,
				-2.602283055708199e-09,
				0.9994161128997803
			],
			"translation":[
				-7.438494264988549e-15,
				1.0396534204483032,
				-3.725290298461914e-09
			]
		},
		{
			"children":[
				66
			],
			"name":"Spine_01",
			"rotation":[
				-0.041991014033555984,
				-7.66341798907888e-08,
				-4.550429810734613e-09,
				0.9991179704666138
			],
			"scale":[
				1,
				1,
				0.9999999403953552
			],
			"translation":[
				3.552713678800501e-14,
				0.6398627758026123,
				-2.2351741790771484e-07
			]
		},
		{
			"name":"Tail_Tip",
			"rotation":[
				0.019028879702091217,
				-9.806432467278359e-15,
				1.6635653965479946e-09,
				0.9998189806938171
			],
			"translation":[
				6.729920287907752e-16,
				0.6716873645782471,
				1.1920928955078125e-07
			]
		},
		{
			"children":[
				68
			],
			"name":"Tail_08",
			"rotation":[
				0.05342014133930206,
				5.767516997844113e-13,
				4.670131392714438e-09,
				0.9985721707344055
			],
			"translation":[
				1.666020294811832e-14,
				0.6877263784408569,
				-1.7881393432617188e-07
			]
		},
		{
			"children":[
				69
			],
			"name":"Tail_07",
			"rotation":[
				0.04944472759962082,
				1.1906287511465052e-07,
				-1.5716837831192265e-09,
				0.9987768530845642
			],
			"scale":[
				1,
				0.9999999403953552,
				1
			],
			"translation":[
				-1.542645033253149e-14,
				0.7036975622177124,
				-1.1920928955078125e-07
			]
		},
		{
			"children":[
				70
			],
			"name":"Tail_06",
			"rotation":[
				0.045596107840538025,
				-1.1908470298749307e-07,
				-1.4493530819947864e-09,
				0.9989599585533142
			],
			"scale":[
				1,
				1.0000001192092896,
				1
			],
			"translation":[
				2.408106876340861e-14,
				0.7198023796081543,
				0
			]
		},
		{
			"children":[
				71
			],
			"name":"Tail_05",
			"rotation":[
				0.02298801764845848,
				1.1917778408587765e-07,
				-7.307220384333846e-10,
				0.9997357130050659
			],
			"scale":[
				1,
				0.9999999403953552,
				1
			],
			"translation":[
				-3.0524756713164874e-14,
				0.7360000610351562,
				-1.1920928955078125e-07
			]
		},
		{
			"children":[
				72
			],
			"name":"Tail_04",
			"rotation":[
				-0.009016286581754684,
				1.9539418707700297e-14,
				1.3614216420876346e-09,
				0.9999593496322632
			],
			"scale":[
				1,
				0.9999998211860657,
				0.9999998211860657
			],
			"translation":[
				5.228900063045279e-14,
				0.7519586682319641,
				2.384185791015625e-07
			]
		},
		{
			"children":[
				73
			],
			"name":"Tail_03",
			"rotation":[
				-0.02870505303144455,
				-4.580447349536443e-13,
				4.334354652968386e-09,
				0.9995879530906677
			],
			"translation":[
				-4.31797440414005e-14,
				0.7678620219230652,
				-2.384185791015625e-07
			]
		},
		{
			"children":[
				74
			],
			"name":"Tail_02",
			"rotation":[
				-0.02965512126684189,
				-9.249314558701371e-08,
				1.7336916346977205e-09,
				0.9995601773262024
			],
			"scale":[
				1,
				0.9999999403953552,
				0.9999998807907104
			],
			"translation":[
				4.440892098500626e-15,
				0.7678861021995544,
				-5.960464477539063e-08
			]
		},
		{
			"children":[
				75
			],
			"name":"Tail_01",
			"rotation":[
				1.0950940776410789e-07,
				0.03343619033694267,
				-0.9994408488273621,
				2.5243265255880942e-09
			],
			"scale":[
				1,
				1.000000238418579,
				1.0000050067901611
			],
			"translation":[
				4.3520742565306136e-14,
				-5.960464477539063e-08,
				-2.8312206268310547e-07
			]
		},
		{
			"name":"RearToe01_L",
			"rotation":[
				0.07076074928045273,
				0.07550588250160217,
				-0.3335815668106079,
				0.9370245933532715
			],
			"scale":[
				1.0000001192092896,
				1.000000238418579,
				1.0000001192092896
			],
			"translation":[
				0.06010036543011665,
				0.7539023160934448,
				0.03727875277400017
			]
		},
		{
			"name":"RearToe02_L",
			"rotation":[
				0.08845493197441101,
				0.023468362167477608,
				-0.11074384301900864,
				0.9896265864372253
			],
			"translation":[
				0.02103262022137642,
				0.7725223898887634,
				0.04299725964665413
			]
		},
		{
			"name":"RearToe03_L",
			"rotation":[
				0.08457092195749283,
				-0.02753712423145771,
				0.1275883913040161,
				0.9878313541412354
			],
			"scale":[
				0.9999999403953552,
				1,
				1
			],
			"translation":[
				-0.024199914187192917,
				0.7717676162719727,
				0.04276546835899353
			]
		},
		{
			"name":"RearToe04_L",
			"rotation":[
				0.030458102002739906,
				-0.11837021261453629,
				0.43828752636909485,
				0.8904857039451599
			],
			"translation":[
				-0.07564336806535721,
				0.7379694581031799,
				0.03238549083471298
			]
		},
		{
			"children":[
				77,
				78,
				79,
				80
			],
			"name":"RearFoot_L",
			"rotation":[
				0.32036760449409485,
				-0.5045166015625,
				0.5127503275871277,
				0.6163723468780518
			],
			"scale":[
				0.9999998211860657,
				0.9999999403953552,
				0.9999998807907104
			],
			"translation":[
				-6.567595534079373e-08,
				0.5330970287322998,
				-1.1548399925231934e-07
			]
		},
		{
			"children":[
				81
			],
			"name":"RearAnkle_L",
			"rotation":[
				0.0012176608433946967,
				0.970147967338562,
				-0.2418850064277649,
				0.017410721629858017
			],
			"translation":[
				1.1801662935795321e-07,
				0.9561900496482849,
				-2.9802322387695312e-08
			]
		},
		{
			"children":[
				82
			],
			"name":"RearLegLow_L",
			"rotation":[
				-0.010018919594585896,
				-0.9568361639976501,
				0.2743684947490692,
				0.09532144665718079
			],
			"scale":[
				1,
				1,
				1.0000001192092896
			],
			"translation":[
				-1.449037512202267e-07,
				0.888495147228241,
				2.384185791015625e-07
			]
		},
		{
			"children":[
				83
			],
			"name":"RearLeg_L",
			"rotation":[
				-0.24169155955314636,
				0.03528901934623718,
				-0.025638898834586143,
				0.9693722128868103
			],
			"translation":[
				-5.551194703912188e-08,
				0.6261775493621826,
				4.470348358154297e-08
			]
		},
		{
			"children":[
				84
			],
			"name":"Hip_L",
			"rotation":[
				-0.30541422963142395,
				0.18251413106918335,
				-0.6022729277610779,
				0.7146174907684326
			],
			"scale":[
				0.9999999403953552,
				0.9999998211860657,
				0.9999999403953552
			],
			"translation":[
				1.076106309890747,
				0.44133687019348145,
				0.09285787492990494
			]
		},
		{
			"name":"RearToe01_R",
			"rotation":[
				0.07075633108615875,
				0.07550415396690369,
				-0.333581805229187,
				0.9370250105857849
			],
			"translation":[
				0.06010077893733978,
				0.7539008259773254,
				0.0372781939804554
			]
		},
		{
			"name":"RearToe02_R",
			"rotation":[
				0.08845031261444092,
				0.023467622697353363,
				-0.11074399948120117,
				0.9896270036697388
			],
			"translation":[
				0.02103303000330925,
				0.7725209593772888,
				0.04299650713801384
			]
		},
		{
			"name":"RearToe03_R",
			"rotation":[
				0.08456641435623169,
				-0.027536848559975624,
				0.12758879363536835,
				0.9878316521644592
			],
			"scale":[
				0.9999999403953552,
				1,
				1
			],
			"translation":[
				-0.024199504405260086,
				0.7717661261558533,
				0.04276471585035324
			]
		},
		{
			"name":"RearToe04_R",
			"rotation":[
				0.030454121530056,
				-0.11836832761764526,
				0.43828800320625305,
				0.890485942363739
			],
			"scale":[
				1,
				1,
				0.9999999403953552
			],
			"translation":[
				-0.07564295828342438,
				0.7379679083824158,
				0.03238506242632866
			]
		},
		{
			"children":[
				86,
				87,
				88,
				89
			],
			"name":"RearFoot_R",
			"rotation":[
				0.32037049531936646,
				0.5045144557952881,
				-0.5127525925636292,
				0.616370677947998
			],
			"scale":[
				1,
				0.9999999403953552,
				0.9999999403953552
			],
			"translation":[
				-1.4017911098562763e-07,
				0.5330615639686584,
				-4.470348358154297e-08
			]
		},
		{
			"children":[
				90
			],
			"name":"RearAnkle_R",
			"rotation":[
				0.0012171308044344187,
				-0.9701480269432068,
				0.24188491702079773,
				0.01740875467658043
			],
			"scale":[
				0.9999999403953552,
				1.0000004768371582,
				1
			],
			"translation":[
				-7.723841122242447e-08,
				0.9561265110969543,
				-1.4156103134155273e-07
			]
		},
		{
			"children":[
				91
			],
			"name":"RearLegLow_R",
			"rotation":[
				-0.01001831702888012,
				0.9568363428115845,
				-0.27436837553977966,
				0.09531955420970917
			],
			"scale":[
				0.9999999403953552,
				0.9999996423721313,
				0.9999998807907104
			],
			"translation":[
				2.9490081487892894e-08,
				0.8884360790252686,
				-1.9371509552001953e-07
			]
		},
		{
			"children":[
				92
			],
			"name":"RearLeg_R",
			"rotation":[
				-0.2416916787624359,
				-0.03528900071978569,
				0.025638919323682785,
				0.9693722128868103
			],
			"scale":[
				0.9999999403953552,
				1,
				1
			],
			"translation":[
				-1.1920928955078125e-07,
				0.6261357069015503,
				-2.2351741790771484e-07
			]
		},
		{
			"children":[
				93
			],
			"name":"Hip_R",
			"rotation":[
				-0.3054143190383911,
				-0.18251435458660126,
				0.6022729873657227,
				0.7146173715591431
			],
			"scale":[
				1,
				1,
				0.9999999403953552
			],
			"translation":[
				-1.0767558813095093,
				0.4413202106952667,
				0.09267326444387436
			]
		},
		{
			"children":[
				67,
				76,
				85,
				94
			],
			"name":"Pelvis",
			"rotation":[
				-0.667300283908844,
				6.89185100100076e-08,
				-6.174814615178548e-08,
				0.7447888255119324
			],
			"scale":[
				1,
				0.9999999403953552,
				0.9999999403953552
			],
			"translation":[
				0,
				2.830570697784424,
				0.3332853317260742
			]
		},
		{
			"children":[
				95
			],
			"name":"Root_Motion"
		},
		{
			"children":[
				96
			],
			"name":"Dragon_Root",
			"rotation":[
				-0.7071067690849304,
				0,
				0,
				0.7071067690849304
			],
			"translation":[
				0,
				1.949601650238037,
				0
			]
		},
		{
			"mesh":0,
			"name":"Dragon_LOD3",
			"skin":0
		},
		{
			"children":[
				98,
				97
			],
			"name":"Dragon_Skeleton"
		}
	],
	"materials":[
		{
			"name":"M_Dragon_Body",
			"normalTexture":{
				"index":0
			},
			"occlusionTexture":{
				"index":1
			},
			"pbrMetallicRoughness":{
				"baseColorTexture":{
					"index":2
				},
				"metallicRoughnessTexture":{
					"index":1
				}
			}
		},
		{
			"name":"M_Dragon_Head",
			"normalTexture":{
				"index":3
			},
			"occlusionTexture":{
				"index":4
			},
			"pbrMetallicRoughness":{
				"baseColorTexture":{
					"index":5
				},
				"metallicRoughnessTexture":{
					"index":4
				}
			}
		},
		{
			"doubleSided":true,
			"name":"M_Dragon_Wings",
			"normalTexture":{
				"index":6
			},
			"occlusionTexture":{
				"index":7
			},
			"pbrMetallicRoughness":{
				"baseColorTexture":{
					"index":8
				},
				"metallicRoughnessTexture":{
					"index":7
				}
			}
		},
		{
			"name":"M_Dragon_Horns_Claws",
			"normalTexture":{
				"index":9
			},
			"occlusionTexture":{
				"index":10
			},
			"pbrMetallicRoughness":{
				"baseColorTexture":{
					"index":11
				},
				"metallicRoughnessTexture":{
					"index":10
				}
			}
		},
		{
			"name":"M_Dragon_Eyes",
			"normalTexture":{
				"index":12
			},
			"occlusionTexture":{
				"index":13
			},
			"pbrMetallicRoughness":{
				"baseColorTexture":{
					"index":14
				},
				"metallicRoughnessTexture":{
					"index":13
				}
			}
		},
		{
			"name":"M_Dragon_Mouth",
			"normalTexture":{
				"index":15
			},
			"occlusionTexture":{
				"index":16
			},
			"pbrMetallicRoughness":{
				"baseColorTexture":{
					"index":17
				},
				"metallicRoughnessTexture":{
					"index":16
				}
			}
		},
		{
			"name":"M_Dragon_Teeth",
			"normalTexture":{
				"index":18
			},
			"occlusionTexture":{
				"index":19
			},
			"pbrMetallicRoughness":{
				"baseColorTexture":{
					"index":20
				},
				"metallicRoughnessTexture":{
					"index":19
				}
			}
		},
		{
			"name":"M_Dragon_Scars",
			"normalTexture":{
				"index":21
			},
			"occlusionTexture":{
				"index":22
			},
			"pbrMetallicRoughness":{
				"baseColorTexture":{
					"index":23
				},
				"metallicRoughnessTexture":{
					"index":22
				}
			}
		}
	],
	"meshes":[
		{
			"name":"Dragon_LOD3_mesh",
			"primitives":[
				{
					"attributes":{
						"POSITION":0,
						"NORMAL":1,
						"TEXCOORD_0":2,
						"TEXCOORD_1":3,
						"TANGENT":4,
						"JOINTS_0":5,
						"WEIGHTS_0":6
					},
					"indices":7,
					"material":0
				},
				{
					"attributes":{
						"POSITION":8,
						"NORMAL":9,
						"TEXCOORD_0":10,
						"TEXCOORD_1":11,
						"TANGENT":12,
						"JOINTS_0":13,
						"WEIGHTS_0":14
					},
					"indices":15,
					"material":1
				},
				{
					"attributes":{
						"POSITION":16,
						"NORMAL":17,
						"TEXCOORD_0":18,
						"TEXCOORD_1":19,
						"TANGENT":20,
						"JOINTS_0":21,
						"WEIGHTS_0":22
					},
					"indices":23,
					"material":2
				},
				{
					"attributes":{
						"POSITION":24,
						"NORMAL":25,
						"TEXCOORD_0":26,
						"TEXCOORD_1":27,
						"TANGENT":28,
						"JOINTS_0":29,
						"WEIGHTS_0":30
					},
					"indices":31,
					"material":3
				},
				{
					"attributes":{
						"POSITION":32,
						"NORMAL":33,
						"TEXCOORD_0":34,
						"TEXCOORD_1":35,
						"TANGENT":36,
						"JOINTS_0":37,
						"WEIGHTS_0":38
					},
					"indices":39,
					"material":4
				},
				{
					"attributes":{
						"POSITION":40,
						"NORMAL":41,
						"TEXCOORD_0":42,
						"TEXCOORD_1":43,
						"TANGENT":44,
						"JOINTS_0":45,
						"WEIGHTS_0":46
					},
					"indices":47,
					"material":5
				},
				{
					"attributes":{
						"POSITION":48,
						"NORMAL":49,
						"TEXCOORD_0":50,
						"TEXCOORD_1":51,
						"TANGENT":52,
						"JOINTS_0":53,
						"WEIGHTS_0":54
					},
					"indices":55,
					"material":6
				},
				{
					"attributes":{
						"POSITION":56,
						"NORMAL":57,
						"TEXCOORD_0":58,
						"TEXCOORD_1":59,
						"TANGENT":60,
						"JOINTS_0":61,
						"WEIGHTS_0":62
					},
					"indices":63,
					"material":7
				}
			]
		}
	],
	"textures":[
		{
			"sampler":0,
			"source":0
		},
		{
			"sampler":0,
			"source":1
		},
		{
			"sampler":0,
			"source":2
		},
		{
			"sampler":0,
			"source":3
		},
		{
			"sampler":0,
			"source":4
		},
		{
			"sampler":0,
			"source":5
		},
		{
			"sampler":0,
			"source":6
		},
		{
			"sampler":0,
			"source":7
		},
		{
			"sampler":0,
			"source":8
		},
		{
			"sampler":0,
			"source":9
		},
		{
			"sampler":0,
			"source":10
		},
		{
			"sampler":0,
			"source":11
		},
		{
			"sampler":0,
			"source":12
		},
		{
			"sampler":0,
			"source":13
		},
		{
			"sampler":0,
			"source":14
		},
		{
			"sampler":0,
			"source":15
		},
		{
			"sampler":0,
			"source":16
		},
		{
			"sampler":0,
			"source":17
		},
		{
			"sampler":0,
			"source":18
		},
		{
			"sampler":0,
			"source":19
		},
		{
			"sampler":0,
			"source":20
		},
		{
			"sampler":0,
			"source":21
		},
		{
			"sampler":0,
			"source":22
		},
		{
			"sampler":0,
			"source":23
		}
	],
	"images":[
		{
			"mimeType":"image/png",
			"name":"M_Dragon_Body_Normal",
			"uri":"textures/M_Dragon_Body_Normal.png"
		},
		{
			"mimeType":"image/png",
			"name":"M_Dragon_Body_ORM",
			"uri":"textures/M_Dragon_Body_ORM.png"
		},
		{
			"mimeType":"image/png",
			"name":"M_Dragon_Body_BaseColor",
			"uri":"textures/M_Dragon_Body_BaseColor.png"
		},
		{
			"mimeType":"image/png",
			"name":"M_Dragon_Head_Normal",
			"uri":"textures/M_Dragon_Head_Normal.png"
		},
		{
			"mimeType":"image/png",
			"name":"M_Dragon_Head_ORM",
			"uri":"textures/M_Dragon_Head_ORM.png"
		},
		{
			"mimeType":"image/png",
			"name":"M_Dragon_Head_BaseColor",
			"uri":"textures/M_Dragon_Head_BaseColor.png"
		},
		{
			"mimeType":"image/png",
			"name":"M_Dragon_Wings_Normal",
			"uri":"textures/M_Dragon_Wings_Normal.png"
		},
		{
			"mimeType":"image/png",
			"name":"M_Dragon_Wings_ORM",
			"uri":"textures/M_Dragon_Wings_ORM.png"
		},
		{
			"mimeType":"image/png",
			"name":"M_Dragon_Wings_BaseColor",
			"uri":"textures/M_Dragon_Wings_BaseColor.png"
		},
		{
			"mimeType":"image/png",
			"name":"M_Dragon_Horns_Claws_Normal",
			"uri":"textures/M_Dragon_Horns_Claws_Normal.png"
		},
		{
			"mimeType":"image/png",
			"name":"M_Dragon_Horns_Claws_ORM",
			"uri":"textures/M_Dragon_Horns_Claws_ORM.png"
		},
		{
			"mimeType":"image/png",
			"name":"M_Dragon_Horns_Claws_BaseColor",
			"uri":"textures/M_Dragon_Horns_Claws_BaseColor.png"
		},
		{
			"mimeType":"image/png",
			"name":"M_Dragon_Eyes_Normal",
			"uri":"textures/M_Dragon_Eyes_Normal.png"
		},
		{
			"mimeType":"image/png",
			"name":"M_Dragon_Eyes_ORM",
			"uri":"textures/M_Dragon_Eyes_ORM.png"
		},
		{
			"mimeType":"image/png",
			"name":"M_Dragon_Eyes_BaseColor",
			"uri":"textures/M_Dragon_Eyes_BaseColor.png"
		},
		{
			"mimeType":"image/png",
			"name":"M_Dragon_Mouth_Normal",
			"uri":"textures/M_Dragon_Mouth_Normal.png"
		},
		{
			"mimeType":"image/png",
			"name":"M_Dragon_Mouth_ORM",
			"uri":"textures/M_Dragon_Mouth_ORM.png"
		},
		{
			"mimeType":"image/png",
			"name":"M_Dragon_Mouth_BaseColor",
			"uri":"textures/M_Dragon_Mouth_BaseColor.png"
		},
		{
			"mimeType":"image/png",
			"name":"M_Dragon_Teeth_Normal",
			"uri":"textures/M_Dragon_Teeth_Normal.png"
		},
		{
			"mimeType":"image/png",
			"name":"M_Dragon_Teeth_ORM",
			"uri":"textures/M_Dragon_Teeth_ORM.png"
		},
		{
			"mimeType":"image/png",
			"name":"M_Dragon_Teeth_BaseColor",
			"uri":"textures/M_Dragon_Teeth_BaseColor.png"
		},
		{
			"mimeType":"image/png",
			"name":"M_Dragon_Scars_Normal",
			"uri":"textures/M_Dragon_Scars_Normal.png"
		},
		{
			"mimeType":"image/png",
			"name":"M_Dragon_Scars_ORM",
			"uri":"textures/M_Dragon_Scars_ORM.png"
		},
		{
			"mimeType":"image/png",
			"name":"M_Dragon_Scars_BaseColor",
			"uri":"textures/M_Dragon_Scars_BaseColor.png"
		}
	],
	"skins":[
		{
			"inverseBindMatrices":64,
			"joints":[
				97,
				96,
				95,
				67,
				66,
				65,
				64,
				17,
				16,
				15,
				14,
				13,
				2,
				1,
				0,
				3,
				4,
				5,
				6,
				7,
				8,
				9,
				10,
				11,
				12,
				26,
				25,
				24,
				23,
				22,
				18,
				19,
				20,
				21,
				35,
				34,
				33,
				32,
				31,
				27,
				28,
				29,
				30,
				49,
				47,
				36,
				46,
				45,
				38,
				37,
				40,
				39,
				42,
				41,
				44,
				43,
				48,
				63,
				61,
				50,
				60,
				59,
				52,
				51,
				54,
				53,
				56,
				55,
				58,
				57,
				62,
				76,
				75,
				74,
				73,
				72,
				71,
				70,
				69,
				68,
				85,
				84,
				83,
				82,
				81,
				77,
				78,
				79,
				80,
				94,
				93,
				92,
				91,
				90,
				86,
				87,
				88,
				89
			],
			"name":"Dragon_Skeleton"
		}
	],
	"accessors":[
		{
			"bufferView":0,
			"componentType":5126,
			"count":10988,
			"max":[
				4.4658660888671875,
				8.351773262023926,
				0.002045315457507968
			],
			"min":[
				-4.4648051261901855,
				-4.6862969398498535,
				-6.422314167022705
			],
			"type":"VEC3"
		},
		{
			"bufferView":1,
			"componentType":5126,
			"count":10988,
			"type":"VEC3"
		},
		{
			"bufferView":2,
			"componentType":5126,
			"count":10988,
			"type":"VEC2"
		},
		{
			"bufferView":3,
			"componentType":5126,
			"count":10988,
			"type":"VEC2"
		},
		{
			"bufferView":4,
			"componentType":5126,
			"count":10988,
			"type":"VEC4"
		},
		{
			"bufferView":5,
			"componentType":5121,
			"count":10988,
			"type":"VEC4"
		},
		{
			"bufferView":6,
			"componentType":5126,
			"count":10988,
			"type":"VEC4"
		},
		{
			"bufferView":7,
			"componentType":5123,
			"count":27993,
			"type":"SCALAR"
		},
		{
			"bufferView":8,
			"componentType":5126,
			"count":1091,
			"max":[
				0.6973810195922852,
				-4.113930702209473,
				-4.488431930541992
			],
			"min":[
				-0.6972425580024719,
				-6.7553300857543945,
				-5.51431941986084
			],
			"type":"VEC3"
		},
		{
			"bufferView":9,
			"componentType":5126,
			"count":1091,
			"type":"VEC3"
		},
		{
			"bufferView":10,
			"componentType":5126,
			"count":1091,
			"type":"VEC2"
		},
		{
			"bufferView":11,
			"componentType":5126,
			"count":1091,
			"type":"VEC2"
		},
		{
			"bufferView":12,
			"componentType":5126,
			"count":1091,
			"type":"VEC4"
		},
		{
			"bufferView":13,
			"componentType":5121,
			"count":1091,
			"type":"VEC4"
		},
		{
			"bufferView":14,
			"componentType":5126,
			"count":1091,
			"type":"VEC4"
		},
		{
			"bufferView":15,
			"componentType":5123,
			"count":3783,
			"type":"SCALAR"
		},
		{
			"bufferView":16,
			"componentType":5126,
			"count":2510,
			"max":[
				9.140904426574707,
				4.968783855438232,
				-2.538060188293457
			],
			"min":[
				-9.145164489746094,
				-1.7388432025909424,
				-8.67671012878418
			],
			"type":"VEC3"
		},
		{
			"bufferView":17,
			"componentType":5126,
			"count":2510,
			"type":"VEC3"
		},
		{
			"bufferView":18,
			"componentType":5126,
			"count":2510,
			"type":"VEC2"
		},
		{
			"bufferView":19,
			"componentType":5126,
			"count":2510,
			"type":"VEC2"
		},
		{
			"bufferView":20,
			"componentType":5126,
			"count":2510,
			"type":"VEC4"
		},
		{
			"bufferView":21,
			"componentType":5121,
			"count":2510,
			"type":"VEC4"
		},
		{
			"bufferView":22,
			"componentType":5126,
			"count":2510,
			"type":"VEC4"
		},
		{
			"bufferView":23,
			"componentType":5123,
			"count":8928,
			"type":"SCALAR"
		},
		{
			"bufferView":24,
			"componentType":5126,
			"count":8075,
			"max":[
				9.628530502319336,
				7.889987945556641,
				-0.005671677179634571
			],
			"min":[
				-9.628530502319336,
				-6.45039176940918,
				-8.776533126831055
			],
			"type":"VEC3"
		},
		{
			"bufferView":25,
			"componentType":5126,
			"count":8075,
			"type":"VEC3"
		},
		{
			"bufferView":26,
			"componentType":5126,
			"count":8075,
			"type":"VEC2"
		},
		{
			"bufferView":27,
			"componentType":5126,
			"count":8075,
			"type":"VEC2"
		},
		{
			"bufferView":28,
			"componentType":5126,
			"count":8075,
			"type":"VEC4"
		},
		{
			"bufferView":29,
			"componentType":5121,
			"count":8075,
			"type":"VEC4"
		},
		{
			"bufferView":30,
			"componentType":5126,
			"count":8075,
			"type":"VEC4"
		},
		{
			"bufferView":31,
			"componentType":5123,
			"count":16386,
			"type":"SCALAR"
		},
		{
			"bufferView":32,
			"componentType":5126,
			"count":184,
			"max":[
				0.5710482597351074,
				-5.274905204772949,
				-4.879656791687012
			],
			"min":[
				-0.5688638687133789,
				-5.505041599273682,
				-5.111285209655762
			],
			"type":"VEC3"
		},
		{
			"bufferView":33,
			"componentType":5126,
			"count":184,
			"type":"VEC3"
		},
		{
			"bufferView":34,
			"componentType":5126,
			"count":184,
			"type":"VEC2"
		},
		{
			"bufferView":35,
			"componentType":5126,
			"count":184,
			"type":"VEC2"
		},
		{
			"bufferView":36,
			"componentType":5126,
			"count":184,
			"type":"VEC4"
		},
		{
			"bufferView":37,
			"componentType":5121,
			"count":184,
			"type":"VEC4"
		},
		{
			"bufferView":38,
			"componentType":5126,
			"count":184,
			"type":"VEC4"
		},
		{
			"bufferView":39,
			"componentType":5123,
			"count":486,
			"type":"SCALAR"
		},
		{
			"bufferView":40,
			"componentType":5126,
			"count":298,
			"max":[
				0.6973810195922852,
				-4.492575645446777,
				-4.581315040588379
			],
			"min":[
				-0.6972425580024719,
				-6.7553300857543945,
				-5.131924629211426
			],
			"type":"VEC3"
		},
		{
			"bufferView":41,
			"componentType":5126,
			"count":298,
			"type":"VEC3"
		},
		{
			"bufferView":42,
			"componentType":5126,
			"count":298,
			"type":"VEC2"
		},
		{
			"bufferView":43,
			"componentType":5126,
			"count":298,
			"type":"VEC2"
		},
		{
			"bufferView":44,
			"componentType":5126,
			"count":298,
			"type":"VEC4"
		},
		{
			"bufferView":45,
			"componentType":5121,
			"count":298,
			"type":"VEC4"
		},
		{
			"bufferView":46,
			"componentType":5126,
			"count":298,
			"type":"VEC4"
		},
		{
			"bufferView":47,
			"componentType":5123,
			"count":1035,
			"type":"SCALAR"
		},
		{
			"bufferView":48,
			"componentType":5126,
			"count":968,
			"max":[
				0.7074686884880066,
				-5.2164692878723145,
				-4.856200695037842
			],
			"min":[
				-0.7073825001716614,
				-6.601249694824219,
				-5.05906867980957
			],
			"type":"VEC3"
		},
		{
			"bufferView":49,
			"componentType":5126,
			"count":968,
			"type":"VEC3"
		},
		{
			"bufferView":50,
			"componentType":5126,
			"count":968,
			"type":"VEC2"
		},
		{
			"bufferView":51,
			"componentType":5126,
			"count":968,
			"type":"VEC2"
		},
		{
			"bufferView":52,
			"componentType":5126,
			"count":968,
			"type":"VEC4"
		},
		{
			"bufferView":53,
			"componentType":5121,
			"count":968,
			"type":"VEC4"
		},
		{
			"bufferView":54,
			"componentType":5126,
			"count":968,
			"type":"VEC4"
		},
		{
			"bufferView":55,
			"componentType":5123,
			"count":1284,
			"type":"SCALAR"
		},
		{
			"bufferView":56,
			"componentType":5126,
			"count":64,
			"max":[
				1.231732726097107,
				3.0550220012664795,
				-1.903802514076233
			],
			"min":[
				-1.2307515144348145,
				-2.9328384399414062,
				-3.147620916366577
			],
			"type":"VEC3"
		},
		{
			"bufferView":57,
			"componentType":5126,
			"count":64,
			"type":"VEC3"
		},
		{
			"bufferView":58,
			"componentType":5126,
			"count":64,
			"type":"VEC2"
		},
		{
			"bufferView":59,
			"componentType":5126,
			"count":64,
			"type":"VEC2"
		},
		{
			"bufferView":60,
			"componentType":5126,
			"count":64,
			"type":"VEC4"
		},
		{
			"bufferView":61,
			"componentType":5121,
			"count":64,
			"type":"VEC4"
		},
		{
			"bufferView":62,
			"componentType":5126,
			"count":64,
			"type":"VEC4"
		},
		{
			"bufferView":63,
			"componentType":5123,
			"count":105,
			"type":"SCALAR"
		},
		{
			"bufferView":64,
			"componentType":5126,
			"count":98,
			"type":"MAT4"
		}
	],
	"bufferViews":[
		{
			"buffer":0,
			"byteLength":131856,
			"byteOffset":0,
			"target":34962
		},
		{
			"buffer":0,
			"byteLength":131856,
			"byteOffset":131856,
			"target":34962
		},
		{
			"buffer":0,
			"byteLength":87904,
			"byteOffset":263712,
			"target":34962
		},
		{
			"buffer":0,
			"byteLength":87904,
			"byteOffset":351616,
			"target":34962
		},
		{
			"buffer":0,
			"byteLength":175808,
			"byteOffset":439520,
			"target":34962
		},
		{
			"buffer":0,
			"byteLength":43952,
			"byteOffset":615328,
			"target":34962
		},
		{
			"buffer":0,
			"byteLength":175808,
			"byteOffset":659280,
			"target":34962
		},
		{
			"buffer":0,
			"byteLength":55986,
			"byteOffset":835088,
			"target":34963
		},
		{
			"buffer":0,
			"byteLength":13092,
			"byteOffset":891076,
			"target":34962
		},
		{
			"buffer":0,
			"byteLength":13092,
			"byteOffset":904168,
			"target":34962
		},
		{
			"buffer":0,
			"byteLength":8728,
			"byteOffset":917260,
			"target":34962
		},
		{
			"buffer":0,
			"byteLength":8728,
			"byteOffset":925988,
			"target":34962
		},
		{
			"buffer":0,
			"byteLength":17456,
			"byteOffset":934716,
			"target":34962
		},
		{
			"buffer":0,
			"byteLength":4364,
			"byteOffset":952172,
			"target":34962
		},
		{
			"buffer":0,
			"byteLength":17456,
			"byteOffset":956536,
			"target":34962
		},
		{
			"buffer":0,
			"byteLength":7566,
			"byteOffset":973992,
			"target":34963
		},
		{
			"buffer":0,
			"byteLength":30120,
			"byteOffset":981560,
			"target":34962
		},
		{
			"buffer":0,
			"byteLength":30120,
			"byteOffset":1011680,
			"target":34962
		},
		{
			"buffer":0,
			"byteLength":20080,
			"byteOffset":1041800,
			"target":34962
		},
		{
			"buffer":0,
			"byteLength":20080,
			"byteOffset":1061880,
			"target":34962
		},
		{
			"buffer":0,
			"byteLength":40160,
			"byteOffset":1081960,
			"target":34962
		},
		{
			"buffer":0,
			"byteLength":10040,
			"byteOffset":1122120,
			"target":34962
		},
		{
			"buffer":0,
			"byteLength":40160,
			"byteOffset":1132160,
			"target":34962
		},
		{
			"buffer":0,
			"byteLength":17856,
			"byteOffset":1172320,
			"target":34963
		},
		{
			"buffer":0,
			"byteLength":96900,
			"byteOffset":1190176,
			"target":34962
		},
		{
			"buffer":0,
			"byteLength":96900,
			"byteOffset":1287076,
			"target":34962
		},
		{
			"buffer":0,
			"byteLength":64600,
			"byteOffset":1383976,
			"target":34962
		},
		{
			"buffer":0,
			"byteLength":64600,
			"byteOffset":1448576,
			"target":34962
		},
		{
			"buffer":0,
			"byteLength":129200,
			"byteOffset":1513176,
			"target":34962
		},
		{
			"buffer":0,
			"byteLength":32300,
			"byteOffset":1642376,
			"target":34962
		},
		{
			"buffer":0,
			"byteLength":129200,
			"byteOffset":1674676,
			"target":34962
		},
		{
			"buffer":0,
			"byteLength":32772,
			"byteOffset":1803876,
			"target":34963
		},
		{
			"buffer":0,
			"byteLength":2208,
			"byteOffset":1836648,
			"target":34962
		},
		{
			"buffer":0,
			"byteLength":2208,
			"byteOffset":1838856,
			"target":34962
		},
		{
			"buffer":0,
			"byteLength":1472,
			"byteOffset":1841064,
			"target":34962
		},
		{
			"buffer":0,
			"byteLength":1472,
			"byteOffset":1842536,
			"target":34962
		},
		{
			"buffer":0,
			"byteLength":2944,
			"byteOffset":1844008,
			"target":34962
		},
		{
			"buffer":0,
			"byteLength":736,
			"byteOffset":1846952,
			"target":34962
		},
		{
			"buffer":0,
			"byteLength":2944,
			"byteOffset":1847688,
			"target":34962
		},
		{
			"buffer":0,
			"byteLength":972,
			"byteOffset":1850632,
			"target":34963
		},
		{
			"buffer":0,
			"byteLength":3576,
			"byteOffset":1851604,
			"target":34962
		},
		{
			"buffer":0,
			"byteLength":3576,
			"byteOffset":1855180,
			"target":34962
		},
		{
			"buffer":0,
			"byteLength":2384,
			"byteOffset":1858756,
			"target":34962
		},
		{
			"buffer":0,
			"byteLength":2384,
			"byteOffset":1861140,
			"target":34962
		},
		{
			"buffer":0,
			"byteLength":4768,
			"byteOffset":1863524,
			"target":34962
		},
		{
			"buffer":0,
			"byteLength":1192,
			"byteOffset":1868292,
			"target":34962
		},
		{
			"buffer":0,
			"byteLength":4768,
			"byteOffset":1869484,
			"target":34962
		},
		{
			"buffer":0,
			"byteLength":2070,
			"byteOffset":1874252,
			"target":34963
		},
		{
			"buffer":0,
			"byteLength":11616,
			"byteOffset":1876324,
			"target":34962
		},
		{
			"buffer":0,
			"byteLength":11616,
			"byteOffset":1887940,
			"target":34962
		},
		{
			"buffer":0,
			"byteLength":7744,
			"byteOffset":1899556,
			"target":34962
		},
		{
			"buffer":0,
			"byteLength":7744,
			"byteOffset":1907300,
			"target":34962
		},
		{
			"buffer":0,
			"byteLength":15488,
			"byteOffset":1915044,
			"target":34962
		},
		{
			"buffer":0,
			"byteLength":3872,
			"byteOffset":1930532,
			"target":34962
		},
		{
			"buffer":0,
			"byteLength":15488,
			"byteOffset":1934404,
			"target":34962
		},
		{
			"buffer":0,
			"byteLength":2568,
			"byteOffset":1949892,
			"target":34963
		},
		{
			"buffer":0,
			"byteLength":768,
			"byteOffset":1952460,
			"target":34962
		},
		{
			"buffer":0,
			"byteLength":768,
			"byteOffset":1953228,
			"target":34962
		},
		{
			"buffer":0,
			"byteLength":512,
			"byteOffset":1953996,
			"target":34962
		},
		{
			"buffer":0,
			"byteLength":512,
			"byteOffset":1954508,
			"target":34962
		},
		{
			"buffer":0,
			"byteLength":1024,
			"byteOffset":1955020,
			"target":34962
		},
		{
			"buffer":0,
			"byteLength":256,
			"byteOffset":1956044,
			"target":34962
		},
		{
			"buffer":0,
			"byteLength":1024,
			"byteOffset":1956300,
			"target":34962
		},
		{
			"buffer":0,
			"byteLength":210,
			"byteOffset":1957324,
			"target":34963
		},
		{
			"buffer":0,
			"byteLength":6272,
			"byteOffset":1957536
		}
	],
	"samplers":[
		{
			"magFilter":9729,
			"minFilter":9987
		}
	],
	"buffers":[
		{
			"byteLength":1963808,
			"uri":"dragon_lod3.bin"
		}
	]
}
